# xmcd
#
# Track frame offsets:
#	150
#	15884
#	33475
#	51944
#	68219
#	86911
#	107098
#	125253
#	145029
#	166911
#	187562
#	206417
#	219445
#	240565
#	256939
#	277563
#
# Disc length: 3894 seconds
#
# Revision: 1
# Processed by: cddbd v1.5.2PL0 Copyright (c) Steve Scherf et al.
# Submitted via: audiograbber 1.83.01
#
DISCID=ca0f3410
DTITLE=Fischer, Helene - Für einen Tag
DYEAR=1900
DGENRE=
TTITLE0=Villa In Der Schlossallee
TTITLE1=Du Kennst Mich Doch
TTITLE2=Nur Wer Den Wahnsinn Liebt
TTITLE3=Wär' Heut' Mein Letzter Tag
TTITLE4=Copilot
TTITLE5=Für Einen Tag
TTITLE6=Phänomen
TTITLE7=Lass Diese Nacht Nie Mehr Enden
TTITLE8=Die Hölle Morgen Früh
TTITLE9=Ich Will Spüren, Dass Ich Lebe
TTITLE10=Vielleicht Bin Ich Viel Stärker Als Du Denkst
TTITLE11=Geradeaus
TTITLE12=Sehnsucht
TTITLE13=Ich Lebe Jetzt
TTITLE14=Allein Im Licht
TTITLE15=Make You Feel My Love
EXTD=
EXTT0=
EXTT1=
EXTT2=
EXTT3=
EXTT4=
EXTT5=
EXTT6=
EXTT7=
EXTT8=
EXTT9=
EXTT10=
EXTT11=
EXTT12=
EXTT13=
EXTT14=
EXTT15=
PLAYORDER=
